<svg id="Layer_2" data-name="Layer 2" xmlns="http://www.w3.org/2000/svg" viewBox="0 0 1217.89 126.74"><defs><style>.cls-1{fill:#1d1d1b;}.cls-2{fill:#e62d3b;}</style></defs><title>digital.austria-logo</title><path class="cls-1" d="M189.78,752.17H99.71v-61.1l18.34-15.31h39.59V645.29h32.13Zm-32.13-22.9V697.15H133.24v32.13Z" transform="translate(-99.71 -645.29)"/><path class="cls-1" d="M242,665.15H209.89V649.84H242Zm0,87H209.89v-76.4H242Z" transform="translate(-99.71 -645.29)"/><path class="cls-1" d="M351.69,772H263.4V752.17h56.16V740.66H279.84L261.5,725.48V691.08l18.34-15.31h71.85Zm-32.13-51.1V697.15H295.15v23.78Z" transform="translate(-99.71 -645.29)"/><path class="cls-1" d="M403.94,665.15H371.81V649.84h32.13Zm0,87H371.81v-76.4h32.13Z" transform="translate(-99.71 -645.29)"/><path class="cls-1" d="M479.32,752.17h-54.9V689.56h-8.6V675.77h8.6v-22.9h32v22.9h21.38v13.79H456.43v39.72h22.9Z" transform="translate(-99.71 -645.29)"/><path class="cls-1" d="M583,752.17H488.94V714l18.34-7.59H550v-9.23H492.35V675.77h72.35L583,691.08Zm-33-22.9v-10H519.55v10Z" transform="translate(-99.71 -645.29)"/><path class="cls-1" d="M631.12,752.17H602.79V645.29h28.33Z" transform="translate(-99.71 -645.29)"/><path class="cls-1" d="M675.14,752.17H651.87v-22.9h23.27Z" transform="translate(-99.71 -645.29)"/><path class="cls-2" d="M789.49,752.17H695.38V714l18.34-7.59h42.75v-9.23H698.79V675.77h72.35l18.34,15.31Zm-33-22.9v-10H726v10Z" transform="translate(-99.71 -645.29)"/><path class="cls-2" d="M897,752.17H809v-76.4h30.61v53.51H864.5V675.77H897Z" transform="translate(-99.71 -645.29)"/><path class="cls-2" d="M1014.91,741.17l-18.34,11H917.25v-22.9h61.09v-10H918V691.08l18.34-15.31H1014v21.38H953.81v9.23h61.1Z" transform="translate(-99.71 -645.29)"/><path class="cls-2" d="M1090,752.17h-54.9V689.56h-8.6V675.77h8.6v-22.9h32v22.9h21.38v13.79h-21.38v39.72H1090Z" transform="translate(-99.71 -645.29)"/><path class="cls-2" d="M1160,697.15h-30.1v55h-30.48v-61.1l18.34-15.31H1160Z" transform="translate(-99.71 -645.29)"/><path class="cls-2" d="M1203.51,665.15h-32.13V649.84h32.13Zm0,87h-32.13v-76.4h32.13Z" transform="translate(-99.71 -645.29)"/><path class="cls-2" d="M1317.61,752.17H1223.5V714l18.34-7.59h42.75v-9.23h-57.68V675.77h72.35l18.34,15.31Zm-33-22.9v-10h-30.48v10Z" transform="translate(-99.71 -645.29)"/></svg>