<?xml version="1.0" encoding="utf-8"?>
<!-- Generator: Adobe Illustrator 21.0.0, SVG Export Plug-In . SVG Version: 6.00 Build 0)  -->
<svg version="1.1" id="Layer_1" xmlns="http://www.w3.org/2000/svg" xmlns:xlink="http://www.w3.org/1999/xlink" x="0px" y="0px"
	 viewBox="0 0 210 34" style="enable-background:new 0 0 210 34;" xml:space="preserve">
<style type="text/css">
	.st0{fill:none;stroke:#000000;stroke-miterlimit:10;}
	.st1{fill:#DC0102;}
	.st2{fill:#FFFFFF;}
</style>
<g id="Layer_4">
	<g id="Layer_4_1_">
	</g>
</g>
<g>
	<path class="st0" d="M205.5,29.9h-73.7c-0.9,0-1.6-1-1.6-1.9V3.2c0-1.2,0.8-1.9,1.6-1.9h73.7c1,0,1.6,1,1.6,1.9v24.7
		C207,28.9,206.2,29.9,205.5,29.9z"/>
	<path class="st1" d="M205.5,29.9h-73.7c-0.9,0-1.6-1-1.6-1.9V3.2c0-1.2,0.8-1.9,1.6-1.9h73.7c1,0,1.6,1,1.6,1.9v24.7
		C207,28.9,206.2,29.9,205.5,29.9"/>
	<polygon class="st2" points="139.6,6.5 142.5,6.5 145.6,21.6 145.6,21.6 149.1,6.5 152,6.5 155.4,21.6 155.4,21.6 158.6,6.5 
		161.5,6.5 156.9,26.3 154,26.3 150.6,11.2 150.5,11.2 147.1,26.3 144.1,26.3 	"/>
	<path class="st2" d="M168.2,23c-1.8,2.3-3.3,3.6-4.3,3.6c-0.7,0-1.2-0.5-1.2-1.4c0-0.3,0.1-1.1,0.2-1.5l1.5-8.5
		c0.1-0.4,0.1-0.9-0.2-0.9s-0.8,0.5-1.7,1.6l-0.5-0.8c2.4-2.6,3.5-3.6,4.3-3.6c0.6,0,0.9,0.4,0.9,1.1c0,0.3,0,0.8-0.1,1.2l-1.6,9.4
		c-0.1,0.4-0.1,0.5-0.1,0.6c0,0.3,0.1,0.5,0.3,0.5c0.4,0,1.2-1,1.9-1.9L168.2,23z M168.7,5.5c0,1.7-0.9,3.1-1.7,3.1
		c-0.7,0-1.2-0.7-1.2-1.6c0-1.6,1-3.1,1.8-3.1C168.3,4,168.7,4.5,168.7,5.5"/>
	<path class="st2" d="M188.3,13.6c1.7-1.4,2.9-1.9,4.2-1.9c1.7,0,3.3,1.2,3.3,4.1v8.1h2.1v2.5h-4.6v-9.5c0-1.8-0.5-2.6-1.4-2.6
		c-1.1,0-2.3,0.7-3.5,1.8v7.8h2.1v2.5h-6.6v-2.5h2.1v-9.5h-2.1v-2.5h4.6L188.3,13.6"/>
	<path class="st2" d="M173.2,17.2c0-1,0.1-1.7,0.3-2.3c0.1-0.3,0.9-2.2,2.7-2.2c1.5,0,2.8,0.9,2.8,3.4v1.2L173.2,17.2L173.2,17.2z
		 M181.1,21.8c-0.5,2.3-2.4,4.1-4.2,4.1c-3.3,0-3.7-2.8-3.7-6.3v-1.5h8.5c0-3.9-2.3-6.3-5.4-6.3c-3.6,0-5.9,3.8-5.9,8.1
		c0,3.9,3,6.9,6,6.9c2.7,0,4.8-1.6,5.3-4.9H181.1"/>
	<path d="M45.7,18.3v3.4c0,1.1-0.2,1.8-0.6,2.6c-0.3,0.7-0.8,1.3-1.4,1.7C43,26.6,42,26.9,41,26.9c-1.2,0-2.1-0.3-2.8-0.9
		c-0.7-0.5-1.2-1.2-1.4-1.7c-0.3-0.7-0.5-1.6-0.5-2.6V7.3c0-1,0.2-1.8,0.6-2.6c0.3-0.7,0.8-1.3,1.4-1.7c0.7-0.4,1.6-0.9,2.8-0.9
		c1.2,0,2,0.4,2.7,0.9c0.7,0.5,1.2,1.2,1.4,1.7c0.4,0.8,0.6,1.7,0.6,2.6v3.4h-3.4V7.4c0-0.7-0.2-1.2-0.6-1.5
		c-0.2-0.2-0.5-0.3-0.9-0.3c-0.7,0-1,0.5-1.2,1c-0.1,0.3-0.1,0.6-0.2,1v14.2c0,0.7,0.2,1.2,0.6,1.5c0.2,0.2,0.4,0.3,0.7,0.3
		c0.8,0,1.1-0.4,1.2-1c0.1-0.2,0.1-0.6,0.1-1v-3.4L45.7,18.3L45.7,18.3z M56.1,22.3c-0.1,1.7-0.7,3-1.7,3.9C53.8,26.7,53,27,51.9,27
		c-2.1,0-3.2-1.2-3.7-2.4c-0.3-0.7-0.5-1.5-0.6-2.4v-9.1c0.1-1.7,0.7-3.1,1.7-4c0.6-0.5,1.4-0.8,2.5-0.8c2.1,0,3.3,1.2,3.7,2.3
		c0.3,0.7,0.5,1.5,0.6,2.3V22.3z M53,13.2c0-0.7-0.1-1.2-0.5-1.6c-0.2-0.2-0.5-0.3-0.8-0.3c-0.7,0-1,0.5-1.1,1
		c-0.1,0.3-0.1,0.6-0.1,1v9.1c0,0.7,0.1,1.2,0.5,1.6c0.2,0.2,0.4,0.3,0.7,0.3c0.7,0,1-0.4,1.1-1c0.1-0.3,0.1-0.6,0.1-1L53,13.2
		L53,13.2z M67,26.8h-3.4v-1.2c-0.6,0.6-1.1,1-1.7,1.2c-0.4,0.2-0.7,0.2-1,0.2c-1,0-1.6-0.6-1.9-1.2c-0.5-0.7-0.7-1.6-0.7-2.3V11.8
		c0-0.8,0.2-1.7,0.7-2.3c0.4-0.7,1.1-1.2,1.9-1.2c0.7,0,1.3,0.4,1.7,0.8c0.3,0.2,0.6,0.5,0.9,0.8V2.3h3.4L67,26.8L67,26.8z
		 M63.6,12.6c0-0.6-0.5-1.2-1.1-1.2c-0.5,0-1,0.5-1,1.2v10.2c0,0.7,0.4,1.2,1,1.2c0.5,0,1.1-0.5,1.1-1.2V12.6z M78,20.3v2
		c-0.1,1.7-0.7,3-1.7,3.9c-0.6,0.5-1.4,0.8-2.5,0.8c-2.1,0-3.3-1.2-3.7-2.4c-0.3-0.7-0.5-1.5-0.6-2.4v-9.1c0.1-1.7,0.7-3.1,1.8-4
		c0.6-0.5,1.4-0.8,2.5-0.8c2.1,0,3.3,1.2,3.7,2.3c0.3,0.7,0.5,1.5,0.6,2.3v5.2h-5.5V22c0,0.7,0.2,1.2,0.6,1.6
		c0.2,0.2,0.4,0.3,0.7,0.3c0.7,0,1-0.4,1.1-1c0.1-0.3,0.1-0.6,0.1-1v-1.9L78,20.3L78,20.3z M72.4,15.7h2.4v-2.5
		c0-0.7-0.1-1.2-0.5-1.6c-0.2-0.2-0.5-0.3-0.8-0.3c-0.7,0-1,0.5-1.1,1c-0.1,0.3-0.1,0.6-0.2,1L72.4,15.7L72.4,15.7z M86.9,12
		c-0.3-0.1-0.7-0.1-1-0.1c-0.6,0-1.2,0.1-1.7,0.6c-0.7,0.6-0.8,1.2-0.8,1.7v12.6h-3.4V8.6h3.4v2c0-0.2,0.3-0.9,0.9-1.3
		c0.6-0.5,1.3-1,2.5-1C86.9,8.4,86.9,12,86.9,12z M88.4,26.8V2.4h2.8c3.3,0,5.2,0.7,6,2.5s1.1,5,1.1,9.7s-0.1,7.8-1.1,9.6
		s-2.7,2.5-6,2.5C91.1,26.8,88.4,26.8,88.4,26.8z M92,23.1c1.2,0,1.9-0.1,2.2-1.3c0.2-0.6,0.3-1.4,0.4-2.6c0-1.2,0-2.7,0-4.7
		s0-3.5,0-4.7s-0.2-1.9-0.4-2.5C93.8,6.2,93.2,6,92,6V23.1L92,23.1z M109,22.3c-0.1,1.7-0.7,3-1.7,3.9c-0.6,0.5-1.4,0.8-2.5,0.8
		c-2.1,0-3.2-1.2-3.7-2.4c-0.3-0.7-0.5-1.5-0.6-2.4v-9.1c0.1-1.7,0.7-3.1,1.7-4c0.6-0.5,1.4-0.8,2.5-0.8c2.1,0,3.3,1.2,3.7,2.3
		c0.3,0.7,0.5,1.5,0.6,2.3V22.3z M105.8,13.2c0-0.7-0.1-1.2-0.5-1.6c-0.2-0.2-0.5-0.3-0.8-0.3c-0.7,0-1,0.5-1.1,1
		c-0.1,0.3-0.1,0.6-0.1,1v9.1c0,0.7,0.1,1.2,0.5,1.6c0.2,0.2,0.4,0.3,0.7,0.3c0.7,0,1-0.4,1.1-1c0.1-0.3,0.1-0.6,0.1-1L105.8,13.2
		L105.8,13.2z M111.2,2.3h3.4v3.4h-3.4V2.3z M114.5,8.6v18.6c0,1,0,2.4-0.5,3.5c-0.5,1.2-1.5,2.1-3.4,2.1c-0.6,0-1,0-1.2-0.1
		c-0.1,0-0.2-0.1-0.4-0.1v-3.1l0.3,0.1c0.2,0,0.5,0.1,0.7,0.1c0.6,0,0.9-0.5,1-1.1c0-0.3,0.1-0.6,0.1-0.9v-0.8V8.6H114.5z
		 M125.5,22.3c-0.1,1.7-0.7,3-1.7,3.9c-0.6,0.5-1.4,0.8-2.5,0.8c-2.1,0-3.2-1.2-3.7-2.4c-0.3-0.7-0.5-1.5-0.6-2.4v-9.1
		c0.1-1.7,0.7-3.1,1.7-4c0.6-0.5,1.4-0.8,2.5-0.8c2.1,0,3.3,1.2,3.7,2.3c0.3,0.7,0.5,1.5,0.6,2.3V22.3L125.5,22.3z M122.3,13.1
		c0-0.7-0.1-1.2-0.5-1.6c-0.2-0.2-0.5-0.3-0.8-0.3c-0.7,0-1,0.5-1.1,1c-0.1,0.3-0.1,0.6-0.1,1v9.1c0,0.7,0.1,1.2,0.5,1.6
		c0.2,0.2,0.4,0.3,0.7,0.3c0.7,0,1-0.4,1.1-1c0.1-0.3,0.1-0.6,0.1-1L122.3,13.1L122.3,13.1z"/>
	<path d="M17.3,1.2c8,0,14.4,6.4,14.4,14.4s-6.4,14.4-14.4,14.4S2.9,23.5,2.9,15.6C2.9,7.7,9.3,1.2,17.3,1.2z M17.1,15.5
		c3.7,0,6.8-3.1,6.8-6.8s-3.1-6.8-6.8-6.8l0,0h-0.2C9.5,2,3.5,8.1,3.5,15.5c0,7.5,5.9,13.5,13.4,13.6c-3.6-0.1-6.6-3.1-6.6-6.8
		C10.3,18.5,13.4,15.5,17.1,15.5z"/>
	<path class="st2" d="M23.9,8.8c0,3.7-3.1,6.8-6.8,6.8s-6.8,3.1-6.8,6.8s3,6.7,6.6,6.8C9.5,29.1,3.5,23,3.5,15.6S9.4,2,16.9,1.9h0.2
		l0,0C20.8,1.9,23.9,4.9,23.9,8.8z"/>
	<path d="M15.1,11.5v-5c0-0.2,0.1-0.4,0.3-0.6c0.2-0.2,0.4-0.3,0.6-0.3h2.6c0.2,0,0.4,0.1,0.6,0.3c0.2,0.2,0.3,0.4,0.3,0.6v5.1
		c0,0.2-0.1,0.4-0.3,0.6c-0.2,0.2-0.4,0.3-0.6,0.3H16c-0.2,0-0.5-0.1-0.6-0.3C15.2,12,15.1,11.8,15.1,11.5L15.1,11.5z M18.5,6.6H16
		v5.1h2.6V6.6z"/>
	<polyline class="st2" points="16.1,26.9 17.4,26.9 17.4,21.9 16.1,21.9 15.8,21.8 15.7,21.5 15.8,21.2 16.1,21.1 18.2,21.1 
		18.2,26.9 19,26.9 19,25.2 19.2,24.9 19.5,24.8 19.8,24.9 19.9,25.2 19.9,27.4 19.8,27.6 19.5,27.8 16.1,27.8 15.8,27.6 15.7,27.4 
		15.8,27.1 16.1,26.9 	"/>
</g>
</svg>
