<?xml version="1.0" encoding="utf-8"?>
<!-- Generator: Adobe Illustrator 21.0.0, SVG Export Plug-In . SVG Version: 6.00 Build 0)  -->
<svg version="1.2" baseProfile="tiny" id="Layer_1" xmlns="http://www.w3.org/2000/svg" xmlns:xlink="http://www.w3.org/1999/xlink"
	 x="0px" y="0px" viewBox="0 0 230 40" overflow="scroll" xml:space="preserve">
<g id="Layer_4">
	<g id="Layer_4_1_">
	</g>
</g>
<g>
	<path fill="none" stroke="#000000" stroke-width="0.5" stroke-miterlimit="10" d="M222.7,33.7h-79c-0.9,0-1.7-1-1.7-2.1V5.1
		c0-1.2,0.8-2.1,1.7-2.1h79c1,0,1.7,1,1.7,2.1v26.5C224.4,32.7,223.6,33.7,222.7,33.7z"/>
	<path fill="#DC0102" d="M222.7,33.7h-79c-0.9,0-1.7-1-1.7-2.1V5.1c0-1.2,0.8-2.1,1.7-2.1h79c1,0,1.7,1,1.7,2.1v26.5
		C224.4,32.7,223.6,33.7,222.7,33.7"/>
	<polygon fill="#FFFFFF" points="152.1,8.6 155.3,8.6 158.6,24.9 158.6,24.9 162.3,8.6 165.5,8.6 169.1,24.9 169.1,24.9 172.5,8.6 
		175.7,8.6 170.7,29.9 167.5,29.9 163.9,13.6 163.8,13.6 160.1,29.9 156.9,29.9 	"/>
	<path fill="#FFFFFF" d="M182.9,26.4c-2,2.5-3.5,3.9-4.6,3.9c-0.7,0-1.2-0.5-1.2-1.5c0-0.3,0.1-1.1,0.2-1.6l1.6-9.1
		c0.1-0.4,0.1-0.9-0.2-0.9c-0.3,0-0.8,0.5-1.8,1.7l-0.5-0.8c2.6-2.8,3.8-3.9,4.6-3.9c0.6,0,0.9,0.4,0.9,1.1c0,0.3,0,0.8-0.1,1.3
		l-1.7,10.1c-0.1,0.4-0.1,0.5-0.1,0.6c0,0.3,0.1,0.5,0.3,0.5c0.4,0,1.2-1,2.1-2.1L182.9,26.4z M183.4,7.6c0,1.8-0.9,3.3-1.9,3.3
		c-0.7,0-1.3-0.7-1.3-1.7c0-1.7,1-3.3,2-3.3C183,5.9,183.4,6.6,183.4,7.6"/>
	<path fill="#FFFFFF" d="M204.3,16.3c1.8-1.5,3.1-2.1,4.5-2.1c1.9,0,3.5,1.3,3.5,4.4v8.6h2.3v2.7h-4.9V19.8c0-2-0.5-2.8-1.5-2.8
		c-1.1,0-2.5,0.7-3.8,2v8.3h2.3v2.7h-7.1v-2.7h2.3V17.1h-2.3v-2.7h4.9V16.3"/>
	<path fill="#FFFFFF" d="M188.2,20.1c0-1,0.1-1.8,0.3-2.5c0.1-0.3,0.9-2.4,2.9-2.4c1.6,0,3,0.9,3,3.6v1.3H188.2z M196.6,25.1
		c-0.5,2.5-2.6,4.4-4.5,4.4c-3.5,0-4-3-4-6.8v-1.6h9.2c0-4.2-2.5-6.8-5.8-6.8c-3.9,0-6.4,4.1-6.4,8.6c0,4.2,3.2,7.4,6.5,7.4
		c2.9,0,5.1-1.7,5.7-5.2H196.6"/>
	<path d="M51.5,21.4V25c0,1.1-0.2,2-0.6,2.8c-0.3,0.7-0.8,1.4-1.5,1.9c-0.7,0.6-1.7,0.9-2.9,0.9c-1.3,0-2.3-0.3-3-0.9
		c-0.7-0.5-1.2-1.2-1.5-1.9c-0.4-0.8-0.6-1.8-0.6-2.8V9.6c0-1,0.2-2,0.6-2.8c0.3-0.7,0.8-1.4,1.5-1.9c0.7-0.5,1.7-0.9,3-0.9
		s2.2,0.4,2.9,0.9c0.7,0.5,1.2,1.2,1.5,1.9c0.4,0.8,0.6,1.8,0.6,2.8v3.6h-3.6V9.6c0-0.7-0.2-1.2-0.6-1.6c-0.2-0.2-0.5-0.3-0.9-0.3
		c-0.7,0-1,0.5-1.2,1c-0.1,0.3-0.1,0.6-0.2,1V25c0,0.7,0.2,1.2,0.6,1.6c0.2,0.2,0.4,0.3,0.7,0.3c0.8,0,1.1-0.4,1.3-1
		c0.1-0.2,0.1-0.6,0.1-1v-3.6L51.5,21.4L51.5,21.4z M62.7,25.6c-0.1,1.9-0.7,3.2-1.9,4.2c-0.6,0.5-1.5,0.8-2.7,0.8
		c-2.3,0-3.4-1.3-4-2.6c-0.3-0.7-0.5-1.6-0.6-2.6v-9.8c0.1-1.9,0.7-3.3,1.9-4.3c0.6-0.5,1.5-0.8,2.7-0.8c2.3,0,3.5,1.3,4,2.5
		c0.3,0.7,0.5,1.6,0.6,2.5V25.6z M59.3,15.8c0-0.7-0.1-1.3-0.5-1.7c-0.2-0.2-0.5-0.3-0.8-0.3c-0.7,0-1,0.5-1.1,1
		c-0.1,0.3-0.1,0.6-0.1,1v9.8c0,0.7,0.1,1.3,0.5,1.7c0.2,0.2,0.4,0.3,0.7,0.3c0.7,0,1-0.4,1.1-1c0.1-0.3,0.1-0.6,0.1-1V15.8
		L59.3,15.8z M74.3,30.4h-3.6v-1.3c-0.6,0.6-1.1,1-1.8,1.3c-0.4,0.2-0.7,0.2-1,0.2c-1,0-1.7-0.6-2.1-1.3c-0.5-0.7-0.7-1.7-0.7-2.5
		V14.4c0-0.8,0.2-1.8,0.7-2.5c0.4-0.7,1.1-1.3,2.1-1.3c0.7,0,1.4,0.4,1.9,0.8c0.3,0.2,0.6,0.5,0.9,0.8v-8h3.6V30.4L74.3,30.4z
		 M70.7,15.2c0-0.6-0.5-1.2-1.1-1.2c-0.5,0-1,0.5-1,1.2v10.9c0,0.7,0.4,1.2,1,1.2c0.5,0,1.1-0.5,1.1-1.2V15.2z M86.1,23.4v2.2
		c-0.1,1.9-0.7,3.2-1.9,4.2c-0.6,0.5-1.5,0.8-2.7,0.8c-2.3,0-3.5-1.3-4-2.6c-0.3-0.7-0.5-1.6-0.6-2.6v-9.8c0.1-1.9,0.7-3.3,2-4.3
		c0.6-0.5,1.5-0.8,2.7-0.8c2.3,0,3.5,1.3,4,2.5c0.3,0.7,0.5,1.6,0.6,2.5v5.6h-5.9v4.2c0,0.7,0.2,1.3,0.6,1.7
		c0.2,0.2,0.4,0.3,0.7,0.3c0.7,0,1-0.4,1.1-1c0.1-0.3,0.1-0.6,0.1-1v-2.1L86.1,23.4L86.1,23.4z M80.2,18.5h2.6v-2.7
		c0-0.7-0.1-1.3-0.5-1.7c-0.2-0.2-0.5-0.3-0.8-0.3c-0.7,0-1,0.5-1.1,1c-0.1,0.3-0.1,0.6-0.2,1L80.2,18.5L80.2,18.5z M95.7,14.6
		c-0.3-0.1-0.7-0.1-1-0.1c-0.6,0-1.2,0.1-1.8,0.6c-0.7,0.6-0.8,1.2-0.8,1.8v13.5h-3.6V10.9h3.6v2.2c0-0.2,0.3-0.9,0.9-1.4
		c0.6-0.5,1.4-1,2.7-1V14.6z M97.2,30.4V4.3h3c3.5,0,5.5,0.7,6.5,2.7c1,2,1.1,5.3,1.1,10.4c0,5.1-0.1,8.3-1.1,10.3
		c-1,2-2.9,2.7-6.5,2.7H97.2z M101.1,26.5c1.3,0,2.1-0.1,2.4-1.4c0.2-0.6,0.3-1.5,0.4-2.8c0-1.2,0-2.9,0-5s0-3.8,0-5
		c0-1.2-0.2-2.1-0.4-2.8c-0.4-1.2-1.1-1.4-2.4-1.4V26.5L101.1,26.5z M119.3,25.6c-0.1,1.9-0.7,3.2-1.9,4.2c-0.6,0.5-1.5,0.8-2.7,0.8
		c-2.3,0-3.4-1.3-4-2.6c-0.3-0.7-0.5-1.6-0.6-2.6v-9.8c0.1-1.9,0.7-3.3,1.9-4.3c0.6-0.5,1.5-0.8,2.7-0.8c2.3,0,3.5,1.3,4,2.5
		c0.3,0.7,0.5,1.6,0.6,2.5V25.6z M115.9,15.8c0-0.7-0.1-1.3-0.5-1.7c-0.2-0.2-0.5-0.3-0.8-0.3c-0.7,0-1,0.5-1.1,1
		c-0.1,0.3-0.1,0.6-0.1,1v9.8c0,0.7,0.1,1.3,0.5,1.7c0.2,0.2,0.4,0.3,0.7,0.3c0.7,0,1-0.4,1.1-1c0.1-0.3,0.1-0.6,0.1-1V15.8
		L115.9,15.8z M121.7,4.2h3.6v3.6h-3.6V4.2z M125.3,10.9v19.9c0,1,0,2.6-0.5,3.8c-0.5,1.3-1.6,2.3-3.6,2.3c-0.6,0-1,0-1.2-0.1
		c-0.1,0-0.2-0.1-0.4-0.1v-3.3l0.3,0.1c0.2,0,0.5,0.1,0.7,0.1c0.6,0,0.9-0.5,1-1.1c0-0.3,0.1-0.6,0.1-0.9v-0.8V10.9H125.3z
		 M137,25.6c-0.1,1.9-0.7,3.2-1.9,4.2c-0.6,0.5-1.5,0.8-2.7,0.8c-2.3,0-3.4-1.3-4-2.6c-0.3-0.7-0.5-1.6-0.6-2.6v-9.8
		c0.1-1.9,0.7-3.3,1.9-4.3c0.6-0.5,1.5-0.8,2.7-0.8c2.3,0,3.5,1.3,4,2.5c0.3,0.7,0.5,1.6,0.6,2.5V25.6z M133.6,15.7
		c0-0.7-0.1-1.3-0.5-1.7c-0.2-0.2-0.5-0.3-0.8-0.3c-0.7,0-1,0.5-1.1,1c-0.1,0.3-0.1,0.6-0.1,1v9.8c0,0.7,0.1,1.3,0.5,1.7
		c0.2,0.2,0.4,0.3,0.7,0.3c0.7,0,1-0.4,1.1-1c0.1-0.3,0.1-0.6,0.1-1V15.7L133.6,15.7z"/>
	<path d="M21,3c8.5,0,15.4,6.9,15.4,15.4c0,8.5-6.9,15.4-15.4,15.4c-8.5,0-15.4-6.9-15.4-15.4C5.6,9.9,12.5,3,21,3z M20.8,18.3
		c4,0,7.3-3.3,7.3-7.3c0-4-3.3-7.3-7.3-7.3l0,0l-0.2,0C12.7,3.9,6.2,10.4,6.2,18.3c0,8,6.4,14.5,14.4,14.6c-3.9-0.1-7.1-3.3-7.1-7.3
		C13.5,21.6,16.8,18.3,20.8,18.3z"/>
	<path fill="#FFFFFF" d="M28.1,11.1c0,4-3.3,7.3-7.3,7.3c-4,0-7.3,3.3-7.3,7.3c0,4,3.2,7.2,7.1,7.3c-7.9-0.1-14.4-6.6-14.4-14.6
		c0-8,6.4-14.5,14.4-14.6l0.2,0l0,0C24.8,3.8,28.1,7,28.1,11.1z"/>
	<path d="M18.7,14.1V8.7c0-0.2,0.1-0.4,0.3-0.6c0.2-0.2,0.4-0.3,0.6-0.3h2.8c0.2,0,0.4,0.1,0.6,0.3c0.2,0.2,0.3,0.4,0.3,0.6v5.4
		c0,0.2-0.1,0.4-0.3,0.6c-0.2,0.2-0.4,0.3-0.6,0.3h-2.8c-0.2,0-0.5-0.1-0.6-0.3C18.8,14.6,18.7,14.4,18.7,14.1L18.7,14.1z M22.4,8.8
		h-2.8v5.4h2.8V8.8z"/>
	<polyline fill="#FFFFFF" points="19.7,30.5 21.1,30.5 21.1,25.2 19.7,25.2 19.4,25.1 19.3,24.7 19.4,24.4 19.7,24.3 22,24.3 
		22,30.5 22.9,30.5 22.9,28.7 23.1,28.3 23.4,28.2 23.7,28.3 23.8,28.7 23.8,31 23.7,31.3 23.4,31.5 19.7,31.5 19.4,31.3 19.3,31 
		19.4,30.7 19.7,30.5 	"/>
</g>
</svg>
