<?xml version="1.0" encoding="utf-8"?>
<!-- Generator: Adobe Illustrator 21.0.0, SVG Export Plug-In . SVG Version: 6.00 Build 0)  -->
<svg version="1.1" id="Layer_1" xmlns="http://www.w3.org/2000/svg" xmlns:xlink="http://www.w3.org/1999/xlink" x="0px" y="0px"
	 viewBox="0 0 220 38.3" style="enable-background:new 0 0 220 38.3;" xml:space="preserve">
<style type="text/css">
	.st0{fill:none;stroke:#000000;stroke-width:0.5;stroke-miterlimit:10;}
	.st1{fill:#DC0102;}
	.st2{fill:#FFFFFF;}
</style>
<g id="Layer_4">
	<g id="Layer_4_1_">
	</g>
</g>
<g>
	<path class="st0" d="M214.8,32.5h-76.8c-0.9,0-1.7-1-1.7-2V4.7c0-1.2,0.8-2,1.7-2h76.8c1,0,1.7,1,1.7,2v25.8
		C216.4,31.5,215.6,32.5,214.8,32.5z"/>
	<path class="st1" d="M214.8,32.5h-76.8c-0.9,0-1.7-1-1.7-2V4.7c0-1.2,0.8-2,1.7-2h76.8c1,0,1.7,1,1.7,2v25.8
		C216.4,31.5,215.6,32.5,214.8,32.5"/>
	<polygon class="st2" points="146.1,8.1 149.2,8.1 152.4,23.9 152.4,23.9 156,8.1 159.1,8.1 162.6,23.9 162.6,23.9 165.9,8.1 
		169,8.1 164.2,28.8 161.1,28.8 157.6,13 157.5,13 153.9,28.8 150.8,28.8 	"/>
	<path class="st2" d="M176,25.4c-1.9,2.4-3.4,3.8-4.5,3.8c-0.7,0-1.2-0.5-1.2-1.5c0-0.3,0.1-1.1,0.2-1.6l1.6-8.9
		c0.1-0.4,0.1-0.9-0.2-0.9s-0.8,0.5-1.8,1.7l-0.5-0.8c2.5-2.7,3.7-3.8,4.5-3.8c0.6,0,0.9,0.4,0.9,1.1c0,0.3,0,0.8-0.1,1.3l-1.7,9.8
		c-0.1,0.4-0.1,0.5-0.1,0.6c0,0.3,0.1,0.5,0.3,0.5c0.4,0,1.2-1,2-2L176,25.4z M176.5,7.1c0,1.8-0.9,3.2-1.8,3.2
		c-0.7,0-1.3-0.7-1.3-1.7c0-1.7,1-3.2,1.9-3.2C176.1,5.5,176.5,6.1,176.5,7.1"/>
	<path class="st2" d="M196.9,15.6c1.8-1.5,3-2,4.4-2c1.8,0,3.4,1.3,3.4,4.3v8.4h2.2v2.6h-4.8V19c0-1.9-0.5-2.7-1.5-2.7
		c-1.1,0-2.4,0.7-3.7,1.9v8.1h2.2v2.6h-6.9v-2.6h2.2v-9.9h-2.2v-2.6h4.8v1.8"/>
	<path class="st2" d="M181.2,19.3c0-1,0.1-1.8,0.3-2.4c0.1-0.3,0.9-2.3,2.8-2.3c1.6,0,2.9,0.9,2.9,3.5v1.3H181.2z M189.4,24.1
		c-0.5,2.4-2.5,4.3-4.4,4.3c-3.4,0-3.9-2.9-3.9-6.6v-1.6h8.9c0-4.1-2.4-6.6-5.6-6.6c-3.8,0-6.2,4-6.2,8.4c0,4.1,3.1,7.2,6.3,7.2
		c2.8,0,5-1.7,5.5-5.1L189.4,24.1"/>
	<path d="M48.2,20.5V24c0,1.1-0.2,1.9-0.6,2.7c-0.3,0.7-0.8,1.4-1.5,1.8c-0.7,0.6-1.7,0.9-2.8,0.9c-1.3,0-2.2-0.3-2.9-0.9
		c-0.7-0.5-1.2-1.2-1.5-1.8C38.6,26,38.4,25,38.4,24v-15c0-1,0.2-1.9,0.6-2.7c0.3-0.7,0.8-1.4,1.5-1.8s1.7-0.9,2.9-0.9
		c1.3,0,2.1,0.4,2.8,0.9s1.2,1.2,1.5,1.8c0.4,0.8,0.6,1.8,0.6,2.7v3.5h-3.5V9.1c0-0.7-0.2-1.2-0.6-1.6c-0.2-0.2-0.5-0.3-0.9-0.3
		c-0.7,0-1,0.5-1.2,1c-0.1,0.3-0.1,0.6-0.2,1V24c0,0.7,0.2,1.2,0.6,1.6c0.2,0.2,0.4,0.3,0.7,0.3c0.8,0,1.1-0.4,1.3-1
		c0.1-0.2,0.1-0.6,0.1-1v-3.5L48.2,20.5L48.2,20.5z M59.1,24.6c-0.1,1.8-0.7,3.1-1.8,4.1c-0.6,0.5-1.5,0.8-2.6,0.8
		c-2.2,0-3.3-1.3-3.9-2.5c-0.3-0.7-0.5-1.6-0.6-2.5v-9.5c0.1-1.8,0.7-3.2,1.8-4.2c0.6-0.5,1.5-0.8,2.6-0.8c2.2,0,3.4,1.3,3.9,2.4
		c0.3,0.7,0.5,1.6,0.6,2.4V24.6z M55.8,15.1c0-0.7-0.1-1.3-0.5-1.7c-0.2-0.2-0.5-0.3-0.8-0.3c-0.7,0-1,0.5-1.1,1
		c-0.1,0.3-0.1,0.6-0.1,1v9.5c0,0.7,0.1,1.3,0.5,1.7c0.2,0.2,0.4,0.3,0.7,0.3c0.7,0,1-0.4,1.1-1c0.1-0.3,0.1-0.6,0.1-1L55.8,15.1
		L55.8,15.1z M70.4,29.3h-3.5V28c-0.6,0.6-1.1,1-1.8,1.3c-0.4,0.2-0.7,0.2-1,0.2c-1,0-1.7-0.6-2-1.3c-0.5-0.7-0.7-1.7-0.7-2.4V13.7
		c0-0.8,0.2-1.8,0.7-2.4c0.4-0.7,1.1-1.3,2-1.3c0.7,0,1.4,0.4,1.8,0.8c0.3,0.2,0.6,0.5,0.9,0.8V3.8h3.5V29.3L70.4,29.3z M66.9,14.5
		c0-0.6-0.5-1.2-1.1-1.2c-0.5,0-1,0.5-1,1.2v10.6c0,0.7,0.4,1.2,1,1.2c0.5,0,1.1-0.5,1.1-1.2V14.5z M81.9,22.5v2.1
		c-0.1,1.8-0.7,3.1-1.8,4.1c-0.6,0.5-1.5,0.8-2.6,0.8c-2.2,0-3.4-1.3-3.9-2.5c-0.3-0.7-0.5-1.6-0.6-2.5v-9.5
		c0.1-1.8,0.7-3.2,1.9-4.2c0.6-0.5,1.5-0.8,2.6-0.8c2.2,0,3.4,1.3,3.9,2.4c0.3,0.7,0.5,1.6,0.6,2.4v5.4h-5.7v4.1
		c0,0.7,0.2,1.3,0.6,1.7c0.2,0.2,0.4,0.3,0.7,0.3c0.7,0,1-0.4,1.1-1c0.1-0.3,0.1-0.6,0.1-1v-2L81.9,22.5L81.9,22.5z M76.1,17.7h2.5
		v-2.6c0-0.7-0.1-1.3-0.5-1.7c-0.2-0.2-0.5-0.3-0.8-0.3c-0.7,0-1,0.5-1.1,1c-0.1,0.3-0.1,0.6-0.2,1V17.7L76.1,17.7z M91.2,13.9
		c-0.3-0.1-0.7-0.1-1-0.1c-0.6,0-1.2,0.1-1.8,0.6c-0.7,0.6-0.8,1.2-0.8,1.8v13.1h-3.5v-19h3.5v2.1c0-0.2,0.3-0.9,0.9-1.4
		c0.6-0.5,1.4-1,2.6-1C91.2,10.1,91.2,13.9,91.2,13.9z M92.7,29.3V3.9h2.9c3.4,0,5.4,0.7,6.3,2.6s1.1,5.2,1.1,10.1s-0.1,8.1-1.1,10
		s-2.8,2.6-6.3,2.6C95.6,29.3,92.7,29.3,92.7,29.3z M96.5,25.5c1.3,0,2-0.1,2.3-1.4c0.2-0.6,0.3-1.5,0.4-2.7c0-1.2,0-2.8,0-4.9
		s0-3.7,0-4.9S99,9.6,98.8,9c-0.4-1.2-1.1-1.4-2.3-1.4V25.5L96.5,25.5z M114.2,24.6c-0.1,1.8-0.7,3.1-1.8,4.1
		c-0.6,0.5-1.5,0.8-2.6,0.8c-2.2,0-3.3-1.3-3.9-2.5c-0.3-0.7-0.5-1.6-0.6-2.5v-9.5c0.1-1.8,0.7-3.2,1.8-4.2c0.6-0.5,1.5-0.8,2.6-0.8
		c2.2,0,3.4,1.3,3.9,2.4c0.3,0.7,0.5,1.6,0.6,2.4V24.6z M110.9,15.1c0-0.7-0.1-1.3-0.5-1.7c-0.2-0.2-0.5-0.3-0.8-0.3
		c-0.7,0-1,0.5-1.1,1c-0.1,0.3-0.1,0.6-0.1,1v9.5c0,0.7,0.1,1.3,0.5,1.7c0.2,0.2,0.4,0.3,0.7,0.3c0.7,0,1-0.4,1.1-1
		c0.1-0.3,0.1-0.6,0.1-1L110.9,15.1L110.9,15.1z M116.5,3.8h3.5v3.5h-3.5V3.8z M120,10.3v19.4c0,1,0,2.5-0.5,3.7
		c-0.5,1.3-1.6,2.2-3.5,2.2c-0.6,0-1,0-1.2-0.1c-0.1,0-0.2-0.1-0.4-0.1v-3.2l0.3,0.1c0.2,0,0.5,0.1,0.7,0.1c0.6,0,0.9-0.5,1-1.1
		c0-0.3,0.1-0.6,0.1-0.9v-0.8V10.3H120z M131.4,24.6c-0.1,1.8-0.7,3.1-1.8,4.1c-0.6,0.5-1.5,0.8-2.6,0.8c-2.2,0-3.3-1.3-3.9-2.5
		c-0.3-0.7-0.5-1.6-0.6-2.5v-9.5c0.1-1.8,0.7-3.2,1.8-4.2c0.6-0.5,1.5-0.8,2.6-0.8c2.2,0,3.4,1.3,3.9,2.4c0.3,0.7,0.5,1.6,0.6,2.4
		L131.4,24.6L131.4,24.6z M128.1,15c0-0.7-0.1-1.3-0.5-1.7c-0.2-0.2-0.5-0.3-0.8-0.3c-0.7,0-1,0.5-1.1,1c-0.1,0.3-0.1,0.6-0.1,1v9.5
		c0,0.7,0.1,1.3,0.5,1.7c0.2,0.2,0.4,0.3,0.7,0.3c0.7,0,1-0.4,1.1-1c0.1-0.3,0.1-0.6,0.1-1L128.1,15L128.1,15z"/>
	<path d="M18.6,2.6c8.3,0,15,6.7,15,15s-6.7,15-15,15s-15-6.7-15-15C3.6,9.4,10.3,2.6,18.6,2.6z M18.4,17.5c3.9,0,7.1-3.2,7.1-7.1
		s-3.2-7.1-7.1-7.1l0,0h-0.2c-7.7,0.2-14,6.5-14,14.2c0,7.8,6.2,14.1,14,14.2c-3.8-0.1-6.9-3.2-6.9-7.1
		C11.3,20.7,14.5,17.5,18.4,17.5z"/>
	<path class="st2" d="M25.5,10.5c0,3.9-3.2,7.1-7.1,7.1s-7.1,3.2-7.1,7.1s3.1,7,6.9,7.1c-7.7-0.1-14-6.4-14-14.2s6.2-14.1,14-14.2
		h0.2l0,0C22.3,3.4,25.5,6.5,25.5,10.5z"/>
	<path d="M16.3,13.4V8.2c0-0.2,0.1-0.4,0.3-0.6c0.2-0.2,0.4-0.3,0.6-0.3h2.7c0.2,0,0.4,0.1,0.6,0.3c0.2,0.2,0.3,0.4,0.3,0.6v5.3
		c0,0.2-0.1,0.4-0.3,0.6c-0.2,0.2-0.4,0.3-0.6,0.3h-2.7c-0.2,0-0.5-0.1-0.6-0.3C16.4,13.9,16.3,13.7,16.3,13.4L16.3,13.4z M19.9,8.3
		h-2.7v5.3h2.7V8.3z"/>
	<polyline class="st2" points="17.3,29.4 18.7,29.4 18.7,24.2 17.3,24.2 17,24.1 16.9,23.8 17,23.5 17.3,23.4 19.5,23.4 19.5,29.4 
		20.4,29.4 20.4,27.6 20.6,27.3 20.9,27.2 21.2,27.3 21.3,27.6 21.3,29.9 21.2,30.2 20.9,30.4 17.3,30.4 17,30.2 16.9,29.9 17,29.6 
		17.3,29.4 	"/>
</g>
</svg>
